# Blender v2.78 (sub 0) OBJ File: 'trithing_hightri.blend'
# www.blender.org
v 1.053757 0.688640 0.827886
v 1.053757 0.031289 0.827886
v -0.732744 0.031289 0.084473
v -0.732744 0.688640 0.084473
v -0.183911 0.031289 2.002082
v -0.183911 0.688640 2.002082
v 0.345718 0.690101 -0.657027
v 0.345718 0.033064 -0.657027
v 2.280646 0.033064 -0.674450
v 2.280646 0.690101 -0.674450
v 1.023212 0.033064 -2.222773
v 1.023212 0.690101 -2.222773
v -0.698514 0.687991 -0.620792
v -0.698514 0.023896 -0.620792
v -1.678235 0.023896 -2.289443
v -1.678235 0.687991 -2.289443
v -2.393567 0.023896 -0.427524
v -2.393567 0.687991 -0.427524
vt 0.0000 0.0000
vt 1.0000 0.0000
vt 1.0000 1.0000
vt 1.0000 0.0000
vt 0.0000 1.0000
vt 0.0000 0.0000
vt 1.0000 0.0000
vt 0.0000 1.0000
vt 0.0000 0.0000
vt 1.0000 0.0000
vt 0.0000 1.0000
vt 0.0000 0.0000
vt 1.0000 1.0000
vt 0.0000 0.0000
vt 1.0000 0.0000
vt 1.0000 1.0000
vt 1.0000 0.0000
vt 0.0000 1.0000
vt 0.0000 0.0000
vt 1.0000 0.0000
vt 0.0000 1.0000
vt 0.0000 0.0000
vt 1.0000 0.0000
vt 0.0000 1.0000
vt 0.0000 0.0000
vt 1.0000 1.0000
vt 0.0000 0.0000
vt 1.0000 0.0000
vt 1.0000 1.0000
vt 1.0000 0.0000
vt 0.0000 1.0000
vt 0.0000 0.0000
vt 1.0000 0.0000
vt 0.0000 1.0000
vt 0.0000 0.0000
vt 1.0000 0.0000
vt 0.0000 1.0000
vt 0.0000 0.0000
vt 1.0000 1.0000
vt 1.0000 1.0000
vt 1.0000 1.0000
vt 1.0000 1.0000
vt 1.0000 1.0000
vt 1.0000 1.0000
vt 1.0000 1.0000
vn 0.0000 -1.0000 0.0000
vn 0.3842 0.0000 -0.9233
vn -0.9614 0.0000 0.2752
vn 0.6883 0.0000 0.7255
vn 0.0000 1.0000 -0.0000
vn 0.0090 0.0000 1.0000
vn 0.7763 0.0000 -0.6304
vn -0.9178 0.0000 -0.3971
vn 0.8623 0.0000 -0.5063
vn -0.9335 0.0000 -0.3586
vn 0.1133 0.0000 0.9936
s off
f 3/1/1 2/2/1 5/3/1
f 1/4/2 3/5/2 4/6/2
f 4/7/3 5/8/3 6/9/3
f 6/10/4 2/11/4 1/12/4
f 4/6/5 6/10/5 1/13/5
f 9/14/1 8/15/1 11/16/1
f 7/17/6 9/18/6 10/19/6
f 10/20/7 11/21/7 12/22/7
f 12/23/8 8/24/8 7/25/8
f 10/19/5 12/23/5 7/26/5
f 15/27/1 14/28/1 17/29/1
f 13/30/9 15/31/9 16/32/9
f 16/33/10 17/34/10 18/35/10
f 18/36/11 14/37/11 13/38/11
f 16/32/5 18/36/5 13/39/5
f 1/4/2 2/40/2 3/5/2
f 4/7/3 3/41/3 5/8/3
f 6/10/4 5/3/4 2/11/4
f 7/17/6 8/42/6 9/18/6
f 10/20/7 9/43/7 11/21/7
f 12/23/8 11/16/8 8/24/8
f 13/30/9 14/44/9 15/31/9
f 16/33/10 15/45/10 17/34/10
f 18/36/11 17/29/11 14/37/11
